<svg id="Layer_1" xmlns="http://www.w3.org/2000/svg" width="50" height="50" viewBox="0 0 50 50"><path transform="rotate(-134.983 33.518 33.892)" d="M32.046 30.142h2.942v7.5h-2.942z"/><path transform="rotate(44.976 16.108 16.484)" d="M14.635 12.736h2.946v7.498h-2.946z"/><path d="M39.143 10.857c-7.811-7.811-20.474-7.811-28.285 0-7.811 7.812-7.811 20.475 0 28.285 7.812 7.811 20.475 7.811 28.285-.001 7.81-7.809 7.81-20.471 0-28.284zm-1.392 26.894c-5.65 5.654-14.155 6.758-20.926 3.319l4.729-4.73 3.222 3.221 11.759-11.758-3.218-3.22-8.479 8.478-4.207-4.209 7.348-7.348-3.197-3.195-10.631 10.629 3.221 3.222-5.351 5.352c-6.799-7.048-6.727-18.309.228-25.262 5.654-5.656 14.159-6.76 20.933-3.317l-5.111 5.109-3.221-3.222-11.758 11.76 3.21 3.211 8.478-8.477 4.19 4.19-7.351 7.353 3.215 3.215 10.634-10.634-3.215-3.215 5.729-5.73c6.795 7.048 6.722 18.308-.231 25.258z"/></svg>