<svg id="Layer_1" xmlns="http://www.w3.org/2000/svg" width="509" height="88" viewBox="0 0 509 88"><path d="M515-212H-6v521h521v-521zM34 88H0V0h11v78h23v10zm46 0H69V0h11v88zm78 0h-10.335l-21.664-57v57H115V0h9.482L147 57V0h11v88zm74-57h-10.001L222 19c0-5.74-2.793-9-9-9-6.328 0-9.001 5.773-9.001 11L204 68.994c0 5.357 2.671 9.006 8.999 9.006 6.206 0 9.001-4.131 9.001-10V57h10v11c0 11.097-6.08 20-19 20-12.912 0-20-8.776-20-20V21c0-11.1 7.088-21 20-21 12.92 0 19 7.904 19 19v12zm77 57h-11V49h-20v39h-11V0h11v38.947h20V0h11v88zm46 0h-11V0h11v88zm30-54.088C385 46.02 378.258 52 367 52h-3V42h3c4.635 0 7-2.626 7-7.548V18c0-5.057-2.365-8-7-8h-3V0h3c11.258 0 18 5.985 18 18.219v15.693zM431 88h-11V0h11v88zm67.665 0L477 31v57h-11V0h9.482L498 57V0h11v88h-10.335z"/></svg>