<svg id="Layer_1" xmlns="http://www.w3.org/2000/svg" width="509" height="88" viewBox="0 0 509 88"><path fill="#010101" d="M0 88V0h11v78h23v10H0zM344 88V0h11v88h-11zM213 88c-12.913 0-20-8.776-20-20V21c0-11.1 7.088-21 20-21 12.919 0 19 7.904 19 19v12h-10.001V19c0-5.74-2.793-9-9-9-6.328 0-9.001 5.773-9.001 11v47.994c0 5.357 2.671 9.006 9 9.006 6.207 0 9-4.131 9-10V57h10v11C232 79.097 225.919 88 213 88zM298 88V49h-20v39h-11V0h11v38.947h20V0h11v88h-11zM420 88V0h11v88h-11zM498.665 88L477 31v57h-11V0h9.481L498 57V0h11v88h-10.335zM367 0h-3v10h3c4.634 0 7 2.943 7 8v16.452c0 4.921-2.365 7.548-7 7.548h-3v10h3c11.258 0 18-5.98 18-18.088V18.219C385 5.985 378.258 0 367 0z"/><path d="M69 88V0h11v88H69zM147.665 88l-21.664-57v57h-11V0h9.481L147 57V0h11v88h-10.335z"/></svg>