<svg id="Layer_1" xmlns="http://www.w3.org/2000/svg" width="50" height="50" viewBox="0 0 50 50"><path d="M32.253 18.224l3.215 3.215-10.634 10.633-3.215-3.214 7.351-7.353-4.19-4.19-8.478 8.477-3.21-3.211L24.85 10.82l3.221 3.221 5.111-5.11c-6.773-3.44-15.278-2.337-20.933 3.318-6.954 6.953-7.026 18.214-.228 25.262l5.351-5.352-3.221-3.222L24.78 18.309l3.197 3.195-7.348 7.348 4.207 4.209 8.479-8.478 3.218 3.22-11.758 11.758-3.222-3.221-4.729 4.73c6.771 3.438 15.275 2.334 20.926-3.319 6.953-6.951 7.026-18.209.231-25.258l-5.728 5.731zm-14.536-5.431l2.084 2.082-5.303 5.302-2.082-2.081 5.301-5.303zm14.188 24.791l-2.08-2.081 5.301-5.303 2.083 2.081-5.304 5.303z"/><path d="M0 0v50h50V0H0zm39.143 39.142c-7.811 7.811-20.474 7.811-28.285.001s-7.811-20.473 0-28.285c7.812-7.81 20.475-7.81 28.285 0 7.81 7.812 7.81 20.475 0 28.284z"/></svg>